<?xml version="1.0" encoding="utf-8"?>
<!-- Generator: Adobe Illustrator 24.0.1, SVG Export Plug-In . SVG Version: 6.00 Build 0)  -->
<svg version="1.1" id="Camada_1" xmlns="http://www.w3.org/2000/svg" xmlns:xlink="http://www.w3.org/1999/xlink" x="0px" y="0px"
	 width="24" height="24" viewBox="0 0 24 24"
	 style="enable-background:new 0 0 24 24;" xml:space="preserve">
<style type="text/css">
	.st0{display:none;fill:#DA5C5C;}
	.st1{display:none;}
	.st2{display:inline;fill:none;}
	.st3{display:inline;}
	.st4{fill-rule:evenodd;clip-rule:evenodd;fill:#DA5C5C;}
	.st5{fill:#DA5C5C;}
</style>
<path class="st0" d="M12.43,5.63c-3.28,0-5.94,2.65-5.94,5.94c0,3.28,2.65,5.94,5.94,5.94c3.28,0,5.94-2.65,5.94-5.94
	C18.36,8.28,15.71,5.63,12.43,5.63z M12.43,15.43c-2.12,0-3.86-1.73-3.86-3.86c0-2.12,1.73-3.86,3.86-3.86
	c2.12,0,3.86,1.73,3.86,3.86C16.29,13.69,14.55,15.43,12.43,15.43z M18.61,4.01c-0.77,0-1.39,0.62-1.39,1.39
	c0,0.77,0.62,1.39,1.39,1.39c0.77,0,1.39-0.62,1.39-1.39c0-0.18-0.04-0.36-0.1-0.53c-0.07-0.17-0.17-0.32-0.3-0.45
	c-0.13-0.13-0.28-0.23-0.45-0.3C18.97,4.04,18.79,4.01,18.61,4.01z M24,11.57c0-1.6,0.01-3.18-0.08-4.78
	c-0.09-1.85-0.51-3.5-1.87-4.85c-1.36-1.36-3-1.78-4.85-1.87C15.61-0.01,14.03,0,12.43,0c-1.6,0-3.18-0.01-4.78,0.08
	C5.8,0.17,4.16,0.59,2.81,1.94c-1.36,1.36-1.78,3-1.87,4.85c-0.09,1.6-0.08,3.18-0.08,4.78c0,1.59-0.01,3.18,0.08,4.78
	c0.09,1.85,0.51,3.5,1.87,4.85c1.36,1.36,3,1.78,4.85,1.87c1.6,0.09,3.18,0.08,4.78,0.08c1.6,0,3.18,0.01,4.78-0.08
	c1.85-0.09,3.5-0.51,4.85-1.87c1.36-1.36,1.78-3,1.87-4.85C24.02,14.75,24,13.17,24,11.57z M21.45,18.39
	c-0.21,0.53-0.47,0.92-0.87,1.33c-0.41,0.41-0.8,0.66-1.33,0.87c-1.52,0.6-5.14,0.47-6.82,0.47c-1.69,0-5.3,0.14-6.83-0.47
	c-0.53-0.21-0.92-0.47-1.33-0.87c-0.41-0.41-0.66-0.8-0.87-1.33c-0.6-1.53-0.47-5.14-0.47-6.83c0-1.69-0.14-5.3,0.47-6.83
	c0.21-0.53,0.47-0.92,0.87-1.33c0.41-0.41,0.8-0.66,1.33-0.87c1.52-0.6,5.14-0.47,6.83-0.47c1.69,0,5.3-0.14,6.83,0.47
	c0.53,0.21,0.92,0.47,1.33,0.87c0.41,0.41,0.66,0.8,0.87,1.33c0.6,1.52,0.47,5.14,0.47,6.83C21.92,13.26,22.06,16.87,21.45,18.39z"
	/>
<g class="st1">
	<g>
		<title>background</title>
		<rect id="canvas_background_7_" x="7.43" y="7.61" class="st2" width="0.04" height="0.04"/>
	</g>
	<g class="st3">
		<title>Layer 1</title>
		<path id="svg_2_4_" class="st4" d="M7.45,7.64C7.46,7.64,7.46,7.64,7.45,7.64C7.46,7.63,7.46,7.63,7.45,7.64L7.45,7.64L7.45,7.64
			L7.45,7.64L7.45,7.64L7.45,7.64L7.45,7.64L7.45,7.64C7.44,7.64,7.44,7.64,7.45,7.64L7.45,7.64C7.44,7.64,7.44,7.64,7.45,7.64
			L7.45,7.64L7.45,7.64L7.45,7.64C7.44,7.64,7.44,7.65,7.45,7.64L7.45,7.64C7.45,7.65,7.44,7.65,7.45,7.64
			c-0.01,0.01-0.02,0-0.02-0.01c0-0.01,0.01-0.02,0.02-0.02c0.01,0,0.02,0.01,0.02,0.02S7.46,7.65,7.45,7.64
			C7.45,7.65,7.45,7.65,7.45,7.64L7.45,7.64L7.45,7.64L7.45,7.64L7.45,7.64z M7.47,7.63c0-0.01-0.01-0.02-0.02-0.02
			S7.43,7.62,7.43,7.63s0.01,0.02,0.02,0.02C7.46,7.65,7.47,7.64,7.47,7.63L7.47,7.63L7.47,7.63z"/>
	</g>
</g>
<g>
	<title>Layer 1</title>
	<path id="svg_1_5_" class="st5" d="M12,0.41C5.6,0.41,0.41,5.6,0.41,12S5.6,23.59,12,23.59S23.59,18.4,23.59,12
		C23.59,5.6,18.4,0.41,12,0.41z M15.07,11.96h-2.01c0,3.21,0,7.15,0,7.15h-2.97c0,0,0-3.91,0-7.15H8.67V9.42h1.42V7.79
		c0-1.17,0.56-3,3.01-3l2.2,0.01v2.46c0,0-1.34,0-1.6,0c-0.26,0-0.63,0.13-0.63,0.69v1.49h2.27L15.07,11.96z"/>
</g>
<g class="st1">
	<g>
		<title>background</title>
		<rect id="canvas_background_6_" x="110.66" y="75.19" class="st2" width="581.64" height="401.75"/>
	</g>
	<g class="st3">
		<title>Layer 1</title>
		<path id="svg_1_4_" class="st5" d="M366.35,77.35c141.2,0,255.84,114.64,255.84,255.84S507.56,589.03,366.35,589.03
			S110.51,474.39,110.51,333.19S225.15,77.35,366.35,77.35z M366.35,173.29c-43.42,0-48.87,0.18-65.93,0.96
			c-17.02,0.78-28.64,3.48-38.82,7.44c-10.51,4.09-19.43,9.55-28.32,18.45c-8.89,8.88-14.36,17.81-18.45,28.32
			c-3.96,10.17-6.66,21.8-7.44,38.82c-0.78,17.06-0.96,22.51-0.96,65.93s0.18,48.87,0.96,65.93c0.78,17.02,3.48,28.64,7.44,38.82
			c4.09,10.51,9.55,19.43,18.45,28.32c8.89,8.89,17.81,14.36,28.32,18.45c10.17,3.95,21.8,6.66,38.82,7.44
			c17.06,0.78,22.5,0.96,65.93,0.96s48.87-0.18,65.93-0.96c17.02-0.78,28.64-3.48,38.82-7.44c10.51-4.09,19.43-9.55,28.32-18.45
			c8.88-8.89,14.36-17.81,18.45-28.32c3.95-10.17,6.66-21.8,7.44-38.82c0.78-17.06,0.96-22.51,0.96-65.93s-0.18-48.87-0.96-65.93
			c-0.78-17.02-3.48-28.64-7.44-38.82c-4.09-10.51-9.55-19.43-18.45-28.32c-8.89-8.89-17.81-14.36-28.32-18.45
			c-10.17-3.96-21.8-6.66-38.82-7.44C415.22,173.47,409.78,173.29,366.35,173.29z M366.35,202.1c42.69,0,47.75,0.16,64.61,0.93
			c15.59,0.71,24.06,3.32,29.69,5.51c7.47,2.9,12.79,6.37,18.39,11.96c5.6,5.6,9.06,10.92,11.96,18.39
			c2.19,5.64,4.8,14.1,5.51,29.69c0.77,16.86,0.93,21.92,0.93,64.61s-0.16,47.75-0.93,64.61c-0.71,15.59-3.32,24.06-5.51,29.69
			c-2.9,7.47-6.37,12.79-11.96,18.39c-5.6,5.6-10.92,9.06-18.39,11.96c-5.64,2.19-14.1,4.8-29.69,5.51
			c-16.86,0.77-21.92,0.93-64.61,0.93s-47.75-0.16-64.61-0.93c-15.59-0.71-24.06-3.32-29.69-5.51c-7.47-2.9-12.79-6.37-18.39-11.96
			c-5.6-5.6-9.06-10.92-11.96-18.39c-2.19-5.64-4.8-14.1-5.51-29.69c-0.77-16.86-0.93-21.92-0.93-64.61s0.16-47.75,0.93-64.61
			c0.71-15.59,3.32-24.06,5.51-29.69c2.9-7.47,6.37-12.79,11.96-18.39c5.6-5.6,10.92-9.06,18.39-11.96
			c5.64-2.19,14.1-4.8,29.69-5.51C318.6,202.26,323.66,202.1,366.35,202.1z M366.35,251.08c-45.35,0-82.11,36.76-82.11,82.11
			s36.77,82.11,82.11,82.11s82.11-36.76,82.11-82.11S411.7,251.08,366.35,251.08z M366.35,386.48c-29.43,0-53.3-23.87-53.3-53.3
			c0-29.44,23.87-53.3,53.3-53.3s53.3,23.87,53.3,53.3C419.65,362.62,395.79,386.48,366.35,386.48z M470.9,247.83
			c0,10.59-8.59,19.19-19.19,19.19s-19.19-8.59-19.19-19.19c0-10.59,8.59-19.19,19.19-19.19
			C462.31,228.64,470.9,237.24,470.9,247.83z"/>
	</g>
</g>
<g>
	<g>
		<g class="st1">
			<title>background</title>
			<rect id="canvas_background_1_" x="-14.43" y="27.66" class="st2" width="23.3" height="23.3"/>
		</g>
		<g>
			<title>Layer 1</title>
			<path id="svg_2_1_" class="st4" d="M-0.96,43.76c2.26-0.27,4.67-1.09,4.67-5c0-1.11-0.39-2.01-1.03-2.71
				c0.1-0.27,0.43-1.27-0.12-2.67c0,0-0.82-0.27-2.75,1.03c-0.82-0.23-1.73-0.37-2.57-0.37c-0.86,0-1.77,0.14-2.57,0.37
				c-1.96-1.3-2.78-1.03-2.78-1.03c-0.55,1.4-0.23,2.41-0.12,2.67c-0.64,0.7-1.03,1.6-1.03,2.71c0,3.91,2.41,4.73,4.67,5
				c-0.29,0.25-0.55,0.72-0.66,1.38c-0.58,0.24-2.08,0.72-2.99-0.85c0,0-0.53-0.97-1.54-1.03c0,0-1.01-0.02-0.08,0.62
				c0,0,0.68,0.31,1.13,1.48c0,0,0.62,1.95,3.45,1.34v1.75c0,0.27-0.21,0.58-0.72,0.49c-4.03-1.34-6.93-5.16-6.93-9.64
				c0-5.61,4.54-10.16,10.16-10.16c5.59,0,10.16,4.54,10.13,10.16c0,4.48-2.9,8.28-6.93,9.64c-0.51,0.1-0.72-0.21-0.72-0.49v-2.82
				C-0.28,44.69-0.59,44.07-0.96,43.76L-0.96,43.76L-0.96,43.76z M8.82,39.32c0-6.41-5.2-11.62-11.59-11.62
				c-6.41,0-11.62,5.2-11.62,11.62c0,6.39,5.2,11.59,11.62,11.59C3.62,50.91,8.82,45.71,8.82,39.32L8.82,39.32L8.82,39.32z"/>
		</g>
	</g>
</g>
<g class="st1">
	<g class="st3">
		<g class="st1">
			<title>background</title>
			<rect id="canvas_background_4_" x="44.29" y="10.73" class="st2" width="0" height="0"/>
		</g>
		<g>
			<title>Layer 1</title>
			<path id="svg_2_2_" class="st4" d="M44.29,10.73C44.29,10.73,44.29,10.73,44.29,10.73C44.29,10.73,44.29,10.73,44.29,10.73
				L44.29,10.73L44.29,10.73L44.29,10.73L44.29,10.73L44.29,10.73L44.29,10.73L44.29,10.73C44.29,10.73,44.29,10.73,44.29,10.73
				L44.29,10.73C44.29,10.73,44.29,10.73,44.29,10.73L44.29,10.73L44.29,10.73L44.29,10.73C44.29,10.73,44.29,10.73,44.29,10.73
				L44.29,10.73C44.29,10.73,44.29,10.73,44.29,10.73C44.29,10.73,44.29,10.73,44.29,10.73C44.29,10.73,44.29,10.73,44.29,10.73
				C44.29,10.73,44.29,10.73,44.29,10.73C44.29,10.73,44.29,10.73,44.29,10.73C44.29,10.73,44.29,10.73,44.29,10.73L44.29,10.73
				L44.29,10.73L44.29,10.73L44.29,10.73z M44.29,10.73C44.29,10.73,44.29,10.73,44.29,10.73C44.29,10.73,44.29,10.73,44.29,10.73
				C44.29,10.73,44.29,10.73,44.29,10.73C44.29,10.73,44.29,10.73,44.29,10.73L44.29,10.73L44.29,10.73z"/>
		</g>
	</g>
	<g class="st3">
		<g class="st1">
			<title>background</title>
			<rect id="canvas_background_2_" x="44.4" y="10.83" class="st2" width="0.01" height="0.01"/>
		</g>
		<g>
			<title>Layer 1</title>
			<path id="svg_1_2_" class="st5" d="M44.29,10.73C44.29,10.73,44.29,10.73,44.29,10.73C44.29,10.73,44.29,10.73,44.29,10.73
				C44.29,10.73,44.29,10.73,44.29,10.73C44.29,10.73,44.29,10.73,44.29,10.73z M44.29,10.73C44.29,10.73,44.29,10.73,44.29,10.73
				C44.29,10.73,44.29,10.73,44.29,10.73C44.29,10.73,44.29,10.73,44.29,10.73C44.29,10.73,44.29,10.73,44.29,10.73
				C44.29,10.73,44.29,10.73,44.29,10.73C44.29,10.73,44.29,10.73,44.29,10.73C44.29,10.73,44.29,10.73,44.29,10.73
				C44.29,10.73,44.29,10.73,44.29,10.73C44.29,10.73,44.29,10.73,44.29,10.73C44.29,10.73,44.29,10.73,44.29,10.73
				C44.29,10.73,44.29,10.73,44.29,10.73C44.29,10.73,44.29,10.73,44.29,10.73C44.29,10.73,44.29,10.73,44.29,10.73
				C44.29,10.73,44.29,10.73,44.29,10.73C44.29,10.73,44.29,10.73,44.29,10.73C44.29,10.73,44.29,10.73,44.29,10.73
				C44.29,10.73,44.29,10.73,44.29,10.73C44.29,10.73,44.29,10.73,44.29,10.73C44.29,10.73,44.29,10.73,44.29,10.73
				C44.29,10.73,44.29,10.73,44.29,10.73C44.29,10.73,44.29,10.73,44.29,10.73C44.29,10.73,44.29,10.73,44.29,10.73
				C44.29,10.73,44.29,10.73,44.29,10.73C44.29,10.73,44.29,10.73,44.29,10.73z M44.29,10.73C44.29,10.73,44.29,10.73,44.29,10.73
				C44.29,10.73,44.29,10.73,44.29,10.73C44.29,10.73,44.29,10.73,44.29,10.73C44.29,10.73,44.29,10.73,44.29,10.73
				C44.29,10.73,44.29,10.73,44.29,10.73C44.29,10.73,44.29,10.73,44.29,10.73C44.29,10.73,44.29,10.73,44.29,10.73
				C44.29,10.73,44.29,10.73,44.29,10.73C44.29,10.73,44.29,10.73,44.29,10.73C44.29,10.73,44.29,10.73,44.29,10.73
				C44.29,10.73,44.29,10.73,44.29,10.73C44.29,10.73,44.29,10.73,44.29,10.73C44.29,10.73,44.29,10.73,44.29,10.73
				C44.29,10.73,44.29,10.73,44.29,10.73C44.29,10.73,44.29,10.73,44.29,10.73C44.29,10.73,44.29,10.73,44.29,10.73
				C44.29,10.73,44.29,10.73,44.29,10.73C44.29,10.73,44.29,10.73,44.29,10.73C44.29,10.73,44.29,10.73,44.29,10.73
				C44.29,10.73,44.29,10.73,44.29,10.73C44.29,10.73,44.29,10.73,44.29,10.73C44.29,10.73,44.29,10.73,44.29,10.73
				C44.29,10.73,44.29,10.73,44.29,10.73C44.29,10.73,44.29,10.73,44.29,10.73z M44.29,10.73C44.29,10.73,44.29,10.73,44.29,10.73
				C44.29,10.73,44.29,10.73,44.29,10.73C44.29,10.73,44.29,10.73,44.29,10.73C44.29,10.73,44.29,10.73,44.29,10.73z M44.29,10.73
				C44.29,10.73,44.29,10.73,44.29,10.73C44.29,10.73,44.29,10.73,44.29,10.73C44.29,10.73,44.29,10.73,44.29,10.73
				C44.29,10.73,44.29,10.73,44.29,10.73z M44.29,10.73C44.29,10.73,44.29,10.73,44.29,10.73C44.29,10.73,44.29,10.73,44.29,10.73
				C44.29,10.73,44.29,10.73,44.29,10.73C44.29,10.73,44.29,10.73,44.29,10.73z"/>
		</g>
	</g>
</g>
</svg>
