<?xml version="1.0" encoding="utf-8"?>
<!-- Generator: Adobe Illustrator 24.0.1, SVG Export Plug-In . SVG Version: 6.00 Build 0)  -->
<svg version="1.1" id="Camada_1" xmlns="http://www.w3.org/2000/svg" xmlns:xlink="http://www.w3.org/1999/xlink" x="0px" y="0px"
	 width="24" height="24" viewBox="0 0 24 24"
	 style="enable-background:new 0 0 24 24;" xml:space="preserve">
<style type="text/css">
	.st0{fill-rule:evenodd;clip-rule:evenodd;fill:#DA5C5C;}
</style>
<path id="svg_1_1_" class="st0" d="M12,1.07c-6.19,0-11.21,5.02-11.21,11.21c0,4.95,3.21,9.15,7.67,10.64
	c0.56,0.1,0.74-0.23,0.74-0.53c0-0.27,0.01-1.01,0-1.95c-3.12,0.68-3.76-1.48-3.76-1.48c-0.51-1.29-1.24-1.64-1.24-1.64
	c-1.02-0.7,0.08-0.68,0.08-0.68c1.12,0.08,1.72,1.16,1.72,1.16c1,1.71,2.62,1.22,3.26,0.93c0.1-0.72,0.39-1.22,0.71-1.5
	c-2.49-0.28-5.11-1.24-5.11-5.54c0-1.22,0.44-2.22,1.15-3.01C5.89,8.4,5.5,7.26,6.12,5.72c0,0,0.94-0.3,3.08,1.15
	c0.89-0.25,1.85-0.37,2.81-0.38c0.95,0,1.91,0.13,2.81,0.38c2.14-1.45,3.08-1.15,3.08-1.15C18.5,7.26,18.12,8.4,18,8.68
	c0.72,0.78,1.15,1.78,1.15,3.01c0,4.31-2.62,5.25-5.12,5.53c0.4,0.35,0.77,1.02,0.77,2.06c0,1.4,0,2.73,0,3.1
	c0,0.3,0.18,0.63,0.75,0.52c4.45-1.48,7.66-5.68,7.66-10.63C23.21,6.09,18.19,1.07,12,1.07z"/>
</svg>
