<?xml version="1.0" encoding="utf-8"?>
<!-- Generator: Adobe Illustrator 24.0.1, SVG Export Plug-In . SVG Version: 6.00 Build 0)  -->
<svg version="1.1" id="Camada_1" xmlns="http://www.w3.org/2000/svg" xmlns:xlink="http://www.w3.org/1999/xlink" x="0px" y="0px"
	 width="24" height="24" viewBox="0 0 24 24"
     style="enable-background:new 0 0 24 24;" xml:space="preserve">
<style type="text/css">
	.st0{display:none;fill:#DA5C5C;}
	.st1{display:none;}
	.st2{display:inline;fill:none;}
	.st3{display:inline;}
	.st4{fill-rule:evenodd;clip-rule:evenodd;fill:#DA5C5C;}
	.st5{display:inline;fill:#DA5C5C;}
	.st6{fill:#DA5C5C;}
</style>
<path class="st0" d="M12.43,5.63c-3.28,0-5.94,2.65-5.94,5.94c0,3.28,2.65,5.94,5.94,5.94c3.28,0,5.94-2.65,5.94-5.94
	C18.36,8.28,15.71,5.63,12.43,5.63z M12.43,15.43c-2.12,0-3.86-1.73-3.86-3.86c0-2.12,1.73-3.86,3.86-3.86
	c2.12,0,3.86,1.73,3.86,3.86C16.29,13.69,14.55,15.43,12.43,15.43z M18.61,4.01c-0.77,0-1.39,0.62-1.39,1.39
	c0,0.77,0.62,1.39,1.39,1.39c0.77,0,1.39-0.62,1.39-1.39c0-0.18-0.04-0.36-0.1-0.53c-0.07-0.17-0.17-0.32-0.3-0.45
	c-0.13-0.13-0.28-0.23-0.45-0.3C18.97,4.04,18.79,4.01,18.61,4.01z M24,11.57c0-1.6,0.01-3.18-0.08-4.78
	c-0.09-1.85-0.51-3.5-1.87-4.85c-1.36-1.36-3-1.78-4.85-1.87C15.61-0.01,14.03,0,12.43,0c-1.6,0-3.18-0.01-4.78,0.08
	C5.8,0.17,4.16,0.59,2.81,1.94c-1.36,1.36-1.78,3-1.87,4.85c-0.09,1.6-0.08,3.18-0.08,4.78c0,1.59-0.01,3.18,0.08,4.78
	c0.09,1.85,0.51,3.5,1.87,4.85c1.36,1.36,3,1.78,4.85,1.87c1.6,0.09,3.18,0.08,4.78,0.08c1.6,0,3.18,0.01,4.78-0.08
	c1.85-0.09,3.5-0.51,4.85-1.87c1.36-1.36,1.78-3,1.87-4.85C24.02,14.75,24,13.17,24,11.57z M21.45,18.39
	c-0.21,0.53-0.47,0.92-0.87,1.33c-0.41,0.41-0.8,0.66-1.33,0.87c-1.52,0.6-5.14,0.47-6.82,0.47c-1.69,0-5.3,0.14-6.83-0.47
	c-0.53-0.21-0.92-0.47-1.33-0.87c-0.41-0.41-0.66-0.8-0.87-1.33c-0.6-1.53-0.47-5.14-0.47-6.83c0-1.69-0.14-5.3,0.47-6.83
	c0.21-0.53,0.47-0.92,0.87-1.33c0.41-0.41,0.8-0.66,1.33-0.87c1.52-0.6,5.14-0.47,6.83-0.47c1.69,0,5.3-0.14,6.83,0.47
	c0.53,0.21,0.92,0.47,1.33,0.87c0.41,0.41,0.66,0.8,0.87,1.33c0.6,1.52,0.47,5.14,0.47,6.83C21.92,13.26,22.06,16.87,21.45,18.39z"
	/>
<g class="st1">
	<g>
		<title>background</title>
		<rect id="canvas_background_7_" x="7.43" y="7.61" class="st2" width="0.04" height="0.04"/>
	</g>
	<g class="st3">
		<title>Layer 1</title>
		<path id="svg_2_4_" class="st4" d="M7.45,7.64C7.46,7.64,7.46,7.64,7.45,7.64C7.46,7.63,7.46,7.63,7.45,7.64L7.45,7.64L7.45,7.64
			L7.45,7.64L7.45,7.64L7.45,7.64L7.45,7.64L7.45,7.64C7.44,7.64,7.44,7.64,7.45,7.64L7.45,7.64C7.44,7.64,7.44,7.64,7.45,7.64
			L7.45,7.64L7.45,7.64L7.45,7.64C7.44,7.64,7.44,7.65,7.45,7.64L7.45,7.64C7.45,7.65,7.44,7.65,7.45,7.64
			c-0.01,0.01-0.02,0-0.02-0.01c0-0.01,0.01-0.02,0.02-0.02c0.01,0,0.02,0.01,0.02,0.02S7.46,7.65,7.45,7.64
			C7.45,7.65,7.45,7.65,7.45,7.64L7.45,7.64L7.45,7.64L7.45,7.64L7.45,7.64z M7.47,7.63c0-0.01-0.01-0.02-0.02-0.02
			S7.43,7.62,7.43,7.63s0.01,0.02,0.02,0.02C7.46,7.65,7.47,7.64,7.47,7.63L7.47,7.63L7.47,7.63z"/>
	</g>
</g>
<g class="st1">
	<title>Layer 1</title>
	<path id="svg_1_5_" class="st5" d="M12,0.41C5.6,0.41,0.41,5.6,0.41,12S5.6,23.59,12,23.59S23.59,18.4,23.59,12
		C23.59,5.6,18.4,0.41,12,0.41z M15.07,11.96h-2.01c0,3.21,0,7.15,0,7.15h-2.97c0,0,0-3.91,0-7.15H8.67V9.42h1.42V7.79
		c0-1.17,0.56-3,3.01-3l2.2,0.01v2.46c0,0-1.34,0-1.6,0c-0.26,0-0.63,0.13-0.63,0.69v1.49h2.27L15.07,11.96z"/>
</g>
<g>
	<g class="st1">
		<title>background</title>
		<rect id="canvas_background_6_" x="1.11" y="0.83" class="st2" width="25.28" height="17.46"/>
	</g>
	<g>
		<title>Layer 1</title>
		<path id="svg_1_4_" class="st6" d="M12.23,0.93c6.14,0,11.12,4.98,11.12,11.12s-4.98,11.12-11.12,11.12S1.11,18.18,1.11,12.05
			S6.09,0.93,12.23,0.93z M12.23,5.1c-1.89,0-2.12,0.01-2.87,0.04C8.62,5.17,8.12,5.29,7.67,5.46c-0.46,0.18-0.84,0.42-1.23,0.8
			c-0.39,0.39-0.62,0.77-0.8,1.23C5.47,7.94,5.35,8.44,5.32,9.18c-0.03,0.74-0.04,0.98-0.04,2.87s0.01,2.12,0.04,2.87
			c0.03,0.74,0.15,1.24,0.32,1.69c0.18,0.46,0.42,0.84,0.8,1.23c0.39,0.39,0.77,0.62,1.23,0.8c0.44,0.17,0.95,0.29,1.69,0.32
			C10.1,18.99,10.34,19,12.23,19s2.12-0.01,2.87-0.04c0.74-0.03,1.24-0.15,1.69-0.32c0.46-0.18,0.84-0.42,1.23-0.8
			c0.39-0.39,0.62-0.77,0.8-1.23c0.17-0.44,0.29-0.95,0.32-1.69c0.03-0.74,0.04-0.98,0.04-2.87s-0.01-2.12-0.04-2.87
			c-0.03-0.74-0.15-1.24-0.32-1.69c-0.18-0.46-0.42-0.84-0.8-1.23s-0.77-0.62-1.23-0.8c-0.44-0.17-0.95-0.29-1.69-0.32
			C14.35,5.11,14.11,5.1,12.23,5.1z M12.23,6.35c1.86,0,2.08,0.01,2.81,0.04c0.68,0.03,1.05,0.14,1.29,0.24
			c0.32,0.13,0.56,0.28,0.8,0.52s0.39,0.47,0.52,0.8c0.1,0.24,0.21,0.61,0.24,1.29c0.03,0.73,0.04,0.95,0.04,2.81
			s-0.01,2.08-0.04,2.81c-0.03,0.68-0.14,1.05-0.24,1.29c-0.13,0.32-0.28,0.56-0.52,0.8s-0.47,0.39-0.8,0.52
			c-0.24,0.1-0.61,0.21-1.29,0.24c-0.73,0.03-0.95,0.04-2.81,0.04s-2.08-0.01-2.81-0.04c-0.68-0.03-1.05-0.14-1.29-0.24
			c-0.32-0.13-0.56-0.28-0.8-0.52s-0.39-0.47-0.52-0.8c-0.1-0.24-0.21-0.61-0.24-1.29c-0.03-0.73-0.04-0.95-0.04-2.81
			s0.01-2.08,0.04-2.81C6.6,8.56,6.71,8.19,6.81,7.95c0.13-0.32,0.28-0.56,0.52-0.8c0.24-0.24,0.47-0.39,0.8-0.52
			c0.24-0.1,0.61-0.21,1.29-0.24C10.15,6.36,10.37,6.35,12.23,6.35z M12.23,8.48c-1.97,0-3.57,1.6-3.57,3.57s1.6,3.57,3.57,3.57
			s3.57-1.6,3.57-3.57S14.2,8.48,12.23,8.48z M12.23,14.36c-1.28,0-2.32-1.04-2.32-2.32c0-1.28,1.04-2.32,2.32-2.32
			s2.32,1.04,2.32,2.32C14.54,13.33,13.51,14.36,12.23,14.36z M16.77,8.34c0,0.46-0.37,0.83-0.83,0.83S15.1,8.8,15.1,8.34
			s0.37-0.83,0.83-0.83C16.4,7.5,16.77,7.88,16.77,8.34z"/>
	</g>
</g>
<g class="st1">
	<g class="st3">
		<g class="st1">
			<title>background</title>
			<rect id="canvas_background_1_" x="0.35" y="0.3" class="st2" width="23.3" height="23.3"/>
		</g>
		<g>
			<title>Layer 1</title>
			<path id="svg_2_1_" class="st4" d="M13.82,16.4c2.26-0.27,4.67-1.09,4.67-5c0-1.11-0.39-2.01-1.03-2.71
				c0.1-0.27,0.43-1.27-0.12-2.67c0,0-0.82-0.27-2.75,1.03c-0.82-0.23-1.73-0.37-2.57-0.37c-0.86,0-1.77,0.14-2.57,0.37
				c-1.96-1.3-2.78-1.03-2.78-1.03c-0.55,1.4-0.23,2.41-0.12,2.67c-0.64,0.7-1.03,1.6-1.03,2.71c0,3.91,2.41,4.73,4.67,5
				c-0.29,0.25-0.55,0.72-0.66,1.38c-0.58,0.24-2.08,0.72-2.99-0.85c0,0-0.53-0.97-1.54-1.03c0,0-1.01-0.02-0.08,0.62
				c0,0,0.68,0.31,1.13,1.48c0,0,0.62,1.95,3.45,1.34v1.75c0,0.27-0.21,0.58-0.72,0.49c-4.03-1.34-6.93-5.16-6.93-9.64
				c0-5.61,4.54-10.16,10.16-10.16c5.59,0,10.16,4.54,10.13,10.16c0,4.48-2.9,8.28-6.93,9.64c-0.51,0.1-0.72-0.21-0.72-0.49v-2.82
				C14.5,17.33,14.19,16.71,13.82,16.4L13.82,16.4L13.82,16.4z M23.6,11.96c0-6.41-5.2-11.62-11.59-11.62
				c-6.41,0-11.62,5.2-11.62,11.62c0,6.39,5.2,11.59,11.62,11.59C18.4,23.55,23.6,18.35,23.6,11.96L23.6,11.96L23.6,11.96z"/>
		</g>
	</g>
</g>
<g class="st1">
	<g class="st3">
		<g class="st1">
			<title>background</title>
			<rect id="canvas_background_4_" x="44.29" y="10.73" class="st2" width="0" height="0"/>
		</g>
		<g>
			<title>Layer 1</title>
			<path id="svg_2_2_" class="st4" d="M44.29,10.73C44.29,10.73,44.29,10.73,44.29,10.73C44.29,10.73,44.29,10.73,44.29,10.73
				L44.29,10.73L44.29,10.73L44.29,10.73L44.29,10.73L44.29,10.73L44.29,10.73L44.29,10.73C44.29,10.73,44.29,10.73,44.29,10.73
				L44.29,10.73C44.29,10.73,44.29,10.73,44.29,10.73L44.29,10.73L44.29,10.73L44.29,10.73C44.29,10.73,44.29,10.73,44.29,10.73
				L44.29,10.73C44.29,10.73,44.29,10.73,44.29,10.73C44.29,10.73,44.29,10.73,44.29,10.73C44.29,10.73,44.29,10.73,44.29,10.73
				C44.29,10.73,44.29,10.73,44.29,10.73C44.29,10.73,44.29,10.73,44.29,10.73C44.29,10.73,44.29,10.73,44.29,10.73L44.29,10.73
				L44.29,10.73L44.29,10.73L44.29,10.73z M44.29,10.73C44.29,10.73,44.29,10.73,44.29,10.73C44.29,10.73,44.29,10.73,44.29,10.73
				C44.29,10.73,44.29,10.73,44.29,10.73C44.29,10.73,44.29,10.73,44.29,10.73L44.29,10.73L44.29,10.73z"/>
		</g>
	</g>
	<g class="st3">
		<g class="st1">
			<title>background</title>
			<rect id="canvas_background_2_" x="44.4" y="10.83" class="st2" width="0.01" height="0.01"/>
		</g>
		<g>
			<title>Layer 1</title>
			<path id="svg_1_2_" class="st6" d="M44.29,10.73C44.29,10.73,44.29,10.73,44.29,10.73C44.29,10.73,44.29,10.73,44.29,10.73
				C44.29,10.73,44.29,10.73,44.29,10.73C44.29,10.73,44.29,10.73,44.29,10.73z M44.29,10.73C44.29,10.73,44.29,10.73,44.29,10.73
				C44.29,10.73,44.29,10.73,44.29,10.73C44.29,10.73,44.29,10.73,44.29,10.73C44.29,10.73,44.29,10.73,44.29,10.73
				C44.29,10.73,44.29,10.73,44.29,10.73C44.29,10.73,44.29,10.73,44.29,10.73C44.29,10.73,44.29,10.73,44.29,10.73
				C44.29,10.73,44.29,10.73,44.29,10.73C44.29,10.73,44.29,10.73,44.29,10.73C44.29,10.73,44.29,10.73,44.29,10.73
				C44.29,10.73,44.29,10.73,44.29,10.73C44.29,10.73,44.29,10.73,44.29,10.73C44.29,10.73,44.29,10.73,44.29,10.73
				C44.29,10.73,44.29,10.73,44.29,10.73C44.29,10.73,44.29,10.73,44.29,10.73C44.29,10.73,44.29,10.73,44.29,10.73
				C44.29,10.73,44.29,10.73,44.29,10.73C44.29,10.73,44.29,10.73,44.29,10.73C44.29,10.73,44.29,10.73,44.29,10.73
				C44.29,10.73,44.29,10.73,44.29,10.73C44.29,10.73,44.29,10.73,44.29,10.73C44.29,10.73,44.29,10.73,44.29,10.73
				C44.29,10.73,44.29,10.73,44.29,10.73C44.29,10.73,44.29,10.73,44.29,10.73z M44.29,10.73C44.29,10.73,44.29,10.73,44.29,10.73
				C44.29,10.73,44.29,10.73,44.29,10.73C44.29,10.73,44.29,10.73,44.29,10.73C44.29,10.73,44.29,10.73,44.29,10.73
				C44.29,10.73,44.29,10.73,44.29,10.73C44.29,10.73,44.29,10.73,44.29,10.73C44.29,10.73,44.29,10.73,44.29,10.73
				C44.29,10.73,44.29,10.73,44.29,10.73C44.29,10.73,44.29,10.73,44.29,10.73C44.29,10.73,44.29,10.73,44.29,10.73
				C44.29,10.73,44.29,10.73,44.29,10.73C44.29,10.73,44.29,10.73,44.29,10.73C44.29,10.73,44.29,10.73,44.29,10.73
				C44.29,10.73,44.29,10.73,44.29,10.73C44.29,10.73,44.29,10.73,44.29,10.73C44.29,10.73,44.29,10.73,44.29,10.73
				C44.29,10.73,44.29,10.73,44.29,10.73C44.29,10.73,44.29,10.73,44.29,10.73C44.29,10.73,44.29,10.73,44.29,10.73
				C44.29,10.73,44.29,10.73,44.29,10.73C44.29,10.73,44.29,10.73,44.29,10.73C44.29,10.73,44.29,10.73,44.29,10.73
				C44.29,10.73,44.29,10.73,44.29,10.73C44.29,10.73,44.29,10.73,44.29,10.73z M44.29,10.73C44.29,10.73,44.29,10.73,44.29,10.73
				C44.29,10.73,44.29,10.73,44.29,10.73C44.29,10.73,44.29,10.73,44.29,10.73C44.29,10.73,44.29,10.73,44.29,10.73z M44.29,10.73
				C44.29,10.73,44.29,10.73,44.29,10.73C44.29,10.73,44.29,10.73,44.29,10.73C44.29,10.73,44.29,10.73,44.29,10.73
				C44.29,10.73,44.29,10.73,44.29,10.73z M44.29,10.73C44.29,10.73,44.29,10.73,44.29,10.73C44.29,10.73,44.29,10.73,44.29,10.73
				C44.29,10.73,44.29,10.73,44.29,10.73C44.29,10.73,44.29,10.73,44.29,10.73z"/>
		</g>
	</g>
</g>
</svg>
